<?xml version="1.0" standalone="no"?>
<!DOCTYPE svg PUBLIC "-//W3C//DTD SVG 20010904//EN"
 "http://www.w3.org/TR/2001/REC-SVG-20010904/DTD/svg10.dtd">
<svg version="1.0" xmlns="http://www.w3.org/2000/svg"
 width="866.000000pt" height="866.000000pt" viewBox="0 0 866.000000 866.000000"
 preserveAspectRatio="xMidYMid meet">

<g transform="translate(0.000000,866.000000) scale(0.100000,-0.100000)"
fill="#000000" stroke="none">
<path d="M4120 8203 c-278 -18 -508 -53 -740 -113 -1464 -372 -2577 -1555
-2859 -3040 -48 -256 -56 -358 -56 -725 1 -431 22 -610 115 -970 279 -1084
1016 -1992 2026 -2498 402 -201 836 -328 1309 -383 207 -24 633 -24 840 0 352
41 647 112 965 233 1007 384 1818 1184 2218 2188 300 754 355 1594 156 2388
-385 1532 -1677 2684 -3244 2892 -224 29 -535 42 -730 28z m499 -429 c2 -2 0
-18 -6 -36 -6 -21 -15 -32 -24 -29 -8 2 -35 6 -60 8 l-47 5 -7 -137 c-4 -76
-5 -169 -1 -207 l6 -68 -51 0 c-48 0 -51 1 -45 23 4 12 9 107 13 210 l6 189
-49 -7 c-27 -3 -59 -8 -71 -11 -26 -5 -27 0 -13 42 l10 30 168 -4 c92 -2 169
-6 171 -8z m198 -28 c3 -2 -1 -22 -7 -45 -16 -60 -51 -340 -48 -381 l3 -35
-50 4 c-28 1 -51 4 -53 6 -1 1 2 15 8 31 17 43 50 289 50 368 l0 69 47 -7 c25
-3 48 -8 50 -10z m-1007 -138 c47 -67 117 -163 156 -214 l72 -92 -55 -7 c-30
-4 -55 -5 -56 -3 -70 139 -61 132 -152 115 -42 -8 -79 -18 -83 -21 -3 -4 -8
-38 -10 -76 l-4 -68 -37 -7 c-20 -3 -46 -9 -58 -12 -23 -5 -23 -5 -6 33 15 36
93 303 123 422 8 28 16 52 19 52 3 -1 44 -56 91 -122z m1309 86 c86 -20 158
-38 160 -40 7 -6 -21 -64 -31 -64 -5 0 -26 9 -48 20 -48 25 -67 25 -74 3 -12
-44 -65 -293 -71 -335 -7 -51 -10 -53 -67 -38 l-37 11 15 36 c18 42 94 356 88
362 -3 3 -36 7 -74 10 l-70 6 20 33 c11 17 23 32 26 32 3 0 77 -16 163 -36z
m-1769 -81 c0 -41 -9 -47 -74 -61 -32 -6 -60 -13 -62 -15 -8 -8 39 -137 49
-137 7 0 39 9 71 20 33 11 61 19 62 17 2 -2 1 -19 -3 -39 -5 -36 -7 -37 -59
-44 -31 -3 -54 -11 -54 -18 0 -27 43 -136 53 -136 21 1 96 38 134 67 l36 28
-5 -48 c-3 -26 -8 -50 -10 -53 -8 -7 -208 -74 -224 -74 -8 0 -14 10 -14 25 0
33 -74 261 -111 344 -16 35 -28 66 -26 68 5 4 220 82 230 82 4 1 7 -11 7 -26z
m2096 -9 c22 -9 41 -18 43 -20 2 -1 -6 -18 -17 -36 -11 -18 -39 -79 -61 -136
-50 -126 -54 -186 -15 -225 48 -48 124 -44 159 9 21 33 105 248 105 271 0 40
14 47 63 28 l45 -17 -25 -44 c-35 -62 -132 -311 -140 -356 -3 -21 -7 -38 -10
-38 -2 0 -20 7 -39 15 -29 12 -34 19 -29 35 6 18 3 19 -37 14 -57 -8 -121 10
-161 46 -31 28 -32 31 -31 107 0 68 6 91 42 180 23 57 45 121 48 143 7 46 8
46 60 24z m-2426 -123 c0 -37 -1 -39 -41 -45 -86 -14 -85 -8 -8 -177 38 -83
78 -163 89 -179 28 -39 26 -46 -22 -64 -42 -18 -57 -12 -58 22 0 11 -136 329
-146 341 -4 5 -74 -38 -101 -62 -20 -17 -23 -18 -28 -4 -4 8 -5 28 -3 43 3 24
17 33 153 95 83 38 153 69 158 69 4 0 7 -17 7 -39z m3126 -207 l31 -23 6 -137
c4 -76 9 -139 11 -141 4 -5 206 53 240 68 19 9 30 7 60 -13 19 -12 36 -25 35
-28 0 -3 -17 -17 -38 -31 -38 -27 -161 -189 -216 -284 -16 -27 -30 -51 -31
-53 -1 -2 -20 9 -42 25 l-39 29 34 39 c30 34 135 176 156 212 4 6 -43 -4 -105
-23 -61 -18 -115 -31 -120 -28 -4 3 -8 35 -9 72 0 37 -4 87 -7 111 l-7 44 -66
-94 c-37 -52 -74 -110 -84 -129 -10 -19 -19 -37 -21 -39 -1 -1 -20 10 -41 25
-21 16 -39 29 -41 30 -1 0 13 17 31 36 19 20 75 94 126 164 87 122 91 131 85
168 -7 42 -5 42 52 0z m-3372 -222 c22 -13 66 -37 98 -52 l58 -28 -47 -30 -47
-31 -37 33 c-75 64 -80 64 -154 16 -73 -48 -75 -54 -46 -138 l18 -54 -46 -28
-46 -29 -3 52 c-1 29 -14 138 -27 242 -14 105 -25 201 -25 213 0 22 51 -6 304
-166z m-483 16 c7 -18 9 -33 3 -35 -25 -9 -88 -49 -91 -58 -4 -13 127 -177
206 -258 l56 -58 -40 -34 -39 -33 -26 43 c-31 54 -218 285 -230 285 -5 0 -28
-23 -51 -50 l-43 -51 -14 26 c-7 14 -12 32 -10 40 3 13 246 215 259 215 4 0
13 -14 20 -32z m2455 -157 c575 -99 1062 -353 1460 -762 134 -139 213 -236
316 -394 89 -135 208 -371 263 -519 157 -426 201 -898 125 -1344 -173 -1011
-938 -1842 -1929 -2092 -229 -58 -406 -80 -646 -80 -603 0 -1171 200 -1640
577 -127 102 -348 330 -443 456 -917 1218 -614 2936 663 3770 305 199 642 328
1006 386 179 29 180 29 454 26 198 -2 275 -7 371 -24z m-2707 -299 c58 -56
126 -117 150 -134 l43 -30 -34 -35 -35 -35 -114 117 c-63 64 -139 136 -171
160 l-56 42 36 37 37 36 19 -27 c11 -16 67 -74 125 -131z m4683 -52 c-38 -102
-75 -210 -82 -240 -8 -30 -15 -57 -17 -59 -2 -3 -21 13 -43 34 l-39 38 19 27
c10 14 26 45 36 69 l17 43 -58 58 -57 58 -37 -15 c-20 -8 -48 -24 -63 -34 -36
-26 -40 -25 -77 21 l-32 39 28 6 c16 4 127 39 248 79 121 40 221 70 223 67 1
-4 -29 -90 -66 -191z m-4974 -19 l33 -28 -30 -6 c-68 -14 -96 -90 -46 -123 24
-15 31 -15 110 5 51 13 96 19 113 15 91 -23 128 -114 82 -203 -19 -37 -72 -91
-91 -91 -5 0 -23 13 -41 30 l-33 29 28 1 c39 0 87 49 87 89 0 60 -56 77 -156
46 -27 -8 -60 -15 -72 -15 -38 0 -92 30 -107 61 -18 33 -19 92 -4 122 12 24
80 97 89 97 3 -1 20 -14 38 -29z m5311 -85 l31 -39 -42 -25 c-58 -34 -211
-154 -275 -216 l-53 -50 -30 34 c-16 19 -29 38 -30 41 0 3 22 20 50 37 70 44
282 216 298 242 7 12 15 20 17 18 2 -1 17 -21 34 -42z m117 -224 c153 -79 183
-281 57 -392 -121 -107 -290 -85 -369 48 -60 99 -53 196 18 277 81 92 194 118
294 67z m-5611 -71 c36 -21 55 -54 55 -100 l0 -34 73 7 c39 4 100 12 135 20
34 7 62 11 62 10 0 -2 -9 -19 -21 -38 -25 -43 -39 -48 -249 -82 l-34 -6 59
-34 c33 -18 72 -36 88 -40 33 -7 33 -15 6 -64 l-21 -38 -62 43 c-68 47 -295
175 -311 175 -5 0 -16 4 -24 9 -11 7 -7 20 22 67 76 125 136 154 222 105z
m-289 -381 c-25 -26 -46 -62 -46 -78 0 -8 108 -62 124 -62 4 0 20 30 37 67
l30 67 24 -29 c29 -35 30 -48 9 -66 -8 -7 -22 -25 -29 -40 l-15 -27 66 -31
c37 -17 70 -31 74 -31 7 0 36 90 48 154 l8 39 30 -39 31 -39 -50 -112 -50
-111 -37 24 c-50 33 -291 141 -345 155 -25 6 -45 14 -45 18 0 3 23 57 52 120
l52 114 28 -34 28 -33 -24 -26z m6199 -26 c35 -99 33 -145 -8 -190 -42 -46
-94 -54 -152 -24 -48 25 -43 30 -116 -114 l-51 -99 -14 33 c-22 51 -18 70 40
183 l55 106 -55 -24 c-30 -13 -68 -33 -84 -45 -36 -26 -37 -25 -53 8 -31 60
-30 69 6 75 49 8 275 102 339 141 29 18 57 30 61 26 4 -4 19 -38 32 -76z
m-6152 -419 c86 -64 157 -123 157 -129 0 -6 -3 -20 -6 -32 -5 -20 -16 -22
-197 -33 -106 -7 -218 -19 -250 -27 -32 -8 -60 -14 -62 -14 -2 0 5 26 14 57
l17 58 77 -4 c89 -3 267 8 266 18 -1 21 -232 181 -260 181 -22 0 -23 13 -7 74
l12 45 41 -38 c23 -21 112 -91 198 -156z m6325 -44 c40 -137 40 -143 5 -135
-51 11 -55 13 -48 33 5 17 -8 97 -17 107 -5 5 -120 -27 -131 -36 -5 -4 0 -40
11 -79 19 -66 19 -72 4 -67 -9 3 -29 8 -44 12 -26 6 -28 10 -28 60 0 38 -4 54
-13 54 -11 0 -93 -21 -134 -35 -16 -5 16 -93 52 -144 14 -19 23 -36 21 -38 -1
-2 -23 0 -48 3 l-46 6 -31 109 c-17 59 -31 114 -31 122 0 10 16 16 53 20 62 6
275 66 338 95 24 11 47 21 50 21 3 1 20 -48 37 -108z m-6518 -341 c63 -13 151
-25 195 -29 63 -5 80 -9 78 -21 -1 -8 -4 -32 -8 -52 l-6 -38 -35 15 c-48 20
-306 65 -372 65 l-55 0 7 46 c8 62 11 65 49 49 18 -7 84 -23 147 -35z m6567
18 c38 -35 53 -72 53 -127 0 -56 0 -56 -54 -65 l-39 -8 16 26 c23 34 21 82 -3
106 -42 42 -80 19 -129 -78 -39 -77 -80 -112 -132 -112 -53 0 -92 22 -119 65
-22 36 -37 132 -23 152 5 7 28 16 51 21 l42 10 -21 -35 c-37 -60 -6 -133 57
-133 36 0 53 18 97 105 25 49 58 87 87 98 29 12 92 -1 117 -25z m-6658 -249
c46 -5 140 -10 208 -11 l123 -2 0 -42 c0 -39 -3 -44 -47 -69 -25 -15 -100 -62
-165 -105 l-120 -77 125 -7 c68 -4 140 -4 160 -1 l35 7 -5 -49 c-3 -26 -6 -49
-7 -50 -2 -2 -17 2 -35 7 -18 5 -107 14 -197 20 l-165 12 -34 -27 -35 -26 0
55 c0 52 2 57 31 71 42 22 301 185 318 200 10 10 -14 14 -123 20 -76 4 -152 5
-171 2 l-35 -6 0 51 c0 49 0 50 27 43 15 -3 65 -11 112 -16z m6616 -98 c51
-23 111 -89 124 -138 12 -41 14 -145 5 -180 -5 -19 -13 -23 -45 -23 -22 0 -39
2 -39 4 0 2 7 21 16 42 21 50 15 135 -13 172 -34 46 -77 65 -148 65 -79 0
-141 -31 -168 -83 -26 -49 -19 -127 16 -179 15 -22 27 -43 27 -46 0 -3 -18 -5
-39 -5 -39 0 -40 1 -60 55 -25 66 -27 151 -5 203 50 121 197 171 329 113z
m-6305 -430 c0 -5 3 -23 6 -40 6 -27 4 -31 -15 -31 -26 0 -27 -12 -1 -35 27
-25 53 -117 45 -158 -10 -45 -60 -94 -114 -111 -25 -9 -98 -22 -161 -30 -64
-8 -129 -20 -144 -26 -16 -6 -30 -9 -31 -8 -2 2 -6 26 -10 53 l-6 51 38 -4
c55 -5 268 25 302 43 68 35 83 115 32 166 -26 25 -37 29 -88 29 -67 0 -236
-24 -276 -39 -31 -12 -34 -9 -38 49 -4 45 -4 45 26 42 36 -4 336 34 380 47 40
12 55 13 55 2z m6270 -36 c47 -8 107 -15 134 -15 40 0 47 -3 42 -16 -3 -9 -6
-25 -6 -37 0 -42 -12 -48 -61 -32 -24 8 -89 21 -145 29 -145 21 -205 4 -225
-64 -15 -50 2 -95 44 -117 34 -17 239 -53 306 -53 l43 0 -7 -47 c-4 -27 -8
-49 -9 -50 -1 -1 -24 4 -51 12 -67 19 -306 55 -368 55 -41 0 -48 3 -43 16 3 9
6 27 6 40 0 18 5 24 21 24 18 0 20 4 14 23 -4 12 -10 49 -12 82 -10 148 81
191 317 150z m-6052 -932 c14 -33 28 -83 30 -114 4 -48 1 -59 -21 -85 -21 -24
-32 -29 -74 -29 -26 0 -55 4 -64 8 -13 7 -18 1 -23 -27 -9 -47 -33 -74 -80
-90 -46 -16 -88 -7 -122 25 -35 33 -108 178 -92 183 7 3 31 10 53 17 58 18
292 125 323 148 15 11 31 21 35 21 4 0 20 -26 35 -57z m6016 -85 c-3 -13 -13
-35 -20 -50 -14 -27 -15 -27 -92 -21 l-77 5 -34 -78 -33 -78 33 -31 c19 -17
45 -38 58 -47 l24 -17 -20 -46 c-11 -26 -22 -47 -25 -48 -3 -1 -28 29 -57 66
-28 38 -103 129 -166 202 -103 120 -112 134 -92 139 12 3 101 6 197 7 96 0
200 4 230 9 30 4 61 8 68 9 9 1 11 -6 6 -21z m-5860 -249 c15 -22 26 -42 24
-43 -2 -2 -28 -14 -58 -29 -75 -34 -208 -126 -234 -160 -37 -50 -17 -133 39
-159 13 -6 39 -8 58 -4 36 7 224 120 268 162 14 13 28 24 31 24 8 0 48 -64 48
-78 0 -5 -13 -15 -29 -20 -34 -12 -231 -136 -309 -194 -30 -22 -55 -38 -56
-36 -38 56 -39 61 -22 74 15 10 11 15 -28 38 -80 47 -118 145 -82 214 21 40
60 72 171 144 55 36 109 75 119 87 11 11 22 21 26 21 4 0 20 -18 34 -41z
m5421 -172 c66 -42 135 -81 153 -88 17 -6 32 -14 32 -18 0 -3 -12 -23 -26 -44
l-26 -38 -41 33 c-59 47 -263 177 -314 200 l-42 19 26 43 27 44 45 -37 c25
-21 100 -72 166 -114z m-255 -121 c78 -75 218 -189 261 -211 l31 -16 -25 -32
c-29 -37 -27 -37 -271 -24 l-149 8 86 -71 c48 -39 105 -82 128 -94 l41 -24
-34 -38 -35 -38 -17 27 c-10 14 -75 73 -146 131 -122 101 -130 106 -175 106
-51 0 -51 3 -4 58 l26 30 208 -14 c114 -8 209 -13 211 -11 5 5 -173 148 -224
181 l-43 27 27 34 c14 19 29 35 32 35 4 0 36 -29 72 -64z m-4843 -198 c47 -22
106 -82 130 -133 16 -34 16 -36 -7 -60 -13 -14 -26 -25 -29 -25 -4 0 -14 22
-24 49 -48 135 -177 167 -282 70 -58 -54 -82 -115 -66 -169 15 -50 68 -103
121 -120 22 -7 40 -17 40 -21 0 -4 -12 -17 -26 -28 -24 -19 -28 -19 -56 -5
-78 40 -141 123 -154 201 -13 83 39 180 122 229 80 47 149 51 231 12z m278
-269 l35 -31 -76 -81 c-108 -114 -144 -171 -144 -225 0 -83 87 -131 156 -86
28 19 180 204 196 240 14 31 20 30 64 -8 l36 -32 -28 -20 c-36 -26 -232 -262
-252 -303 -9 -18 -18 -33 -21 -33 -3 1 -19 12 -36 25 -23 19 -27 27 -17 37 19
19 14 25 -29 31 -22 3 -58 17 -79 31 -110 73 -98 171 41 331 34 39 72 89 86
113 14 23 27 42 29 42 2 0 19 -14 39 -31z m4235 -74 c108 -47 211 -88 228 -91
18 -4 32 -10 32 -14 0 -10 -68 -70 -79 -70 -5 0 -13 6 -19 13 -6 7 -34 24 -61
37 l-50 23 -60 -53 c-34 -28 -61 -58 -61 -65 0 -7 13 -38 29 -71 l30 -58 -37
-33 c-20 -17 -40 -32 -43 -33 -4 0 -10 21 -14 46 -5 37 -103 405 -120 453 -6
16 -22 22 225 -84z m-396 -136 c6 -37 129 -238 192 -315 l33 -42 -40 -27 c-23
-14 -42 -25 -44 -23 -1 2 -14 26 -28 53 -14 28 -50 88 -80 134 -63 96 -62 97
-73 -51 -3 -54 -9 -98 -13 -98 -3 0 -54 15 -114 34 l-107 34 22 -37 c49 -81
102 -158 131 -188 34 -36 34 -37 -35 -77 -25 -16 -27 -15 -33 6 -4 13 -50 91
-102 175 -81 131 -99 153 -129 163 -19 6 -34 15 -34 18 0 4 19 19 42 34 36 23
44 25 62 13 12 -8 66 -28 121 -46 55 -17 105 -33 111 -36 12 -4 39 233 29 259
-4 11 7 23 37 41 24 14 44 22 45 19 1 -4 4 -23 7 -43z m-3394 -125 c30 -20 67
-47 83 -62 79 -75 31 -212 -75 -212 l-41 0 7 -77 c3 -43 12 -104 20 -135 7
-32 11 -58 8 -58 -2 0 -20 9 -38 20 -38 24 -48 49 -68 179 -9 52 -17 96 -19
98 -4 4 -71 -128 -81 -159 -5 -16 -9 -15 -49 9 l-45 26 35 48 c45 64 170 284
184 326 6 18 14 33 18 33 3 0 31 -16 61 -36z m448 -226 l102 -42 -29 -29 -29
-30 -34 26 c-18 14 -45 30 -60 36 -25 9 -27 8 -50 -52 -12 -34 -23 -66 -23
-71 0 -4 31 -21 69 -36 l69 -27 -36 -27 -35 -27 -43 31 c-23 17 -46 27 -50 23
-6 -7 -59 -131 -59 -139 0 -9 116 -34 156 -34 l48 0 -38 -39 -38 -39 -111 45
c-62 25 -113 46 -115 48 -2 2 12 34 31 71 41 83 112 263 127 322 9 35 15 42
28 38 9 -4 63 -25 120 -48z m2380 -4 c146 -60 194 -263 92 -386 -70 -84 -210
-110 -303 -55 -142 84 -167 278 -49 390 62 59 183 83 260 51z m-1974 -131 c17
-8 32 -17 34 -18 2 -2 -2 -22 -8 -46 l-12 -42 -21 26 c-41 49 -102 53 -126 8
-14 -26 -4 -52 48 -120 48 -64 63 -109 50 -153 -26 -92 -143 -125 -238 -67
-31 18 -33 23 -26 57 10 54 15 57 35 24 23 -37 70 -55 108 -41 59 22 57 66 -7
153 -27 37 -53 80 -56 96 -8 36 9 91 34 114 42 38 121 42 185 9z m1460 -52
c55 -52 56 -146 1 -189 l-24 -19 67 -65 c37 -35 82 -75 101 -88 31 -21 32 -24
15 -31 -58 -23 -87 -10 -213 100 l-63 55 7 -44 c4 -24 16 -68 26 -97 10 -29
15 -54 11 -57 -4 -2 -27 -7 -52 -11 l-45 -6 -3 58 c-3 72 -49 316 -68 362 -8
19 -12 36 -9 39 11 12 85 21 152 19 60 -2 76 -6 97 -26z m-1099 -7 c178 -20
167 -16 154 -54 -14 -38 -23 -44 -51 -29 -12 7 -37 15 -55 19 -31 7 -33 6 -38
-24 -13 -77 -35 -289 -35 -335 l0 -51 -47 7 c-27 3 -49 7 -50 8 -2 1 2 17 7
36 10 33 50 325 50 363 0 17 -6 18 -74 13 l-75 -5 16 34 c20 40 13 39 198 18z
m363 -66 c-5 -24 -11 -130 -11 -235 l-2 -193 -47 0 -48 0 8 63 c4 34 7 140 7
235 l0 172 51 0 52 0 -10 -42z"/>
<path d="M3722 7529 c-17 -72 -18 -71 36 -63 26 3 49 8 51 10 5 5 -60 104 -68
104 -4 0 -13 -23 -19 -51z"/>
<path d="M2540 7111 c0 -14 22 -115 25 -119 5 -5 85 42 85 49 0 3 -25 23 -55
43 -30 20 -55 32 -55 27z"/>
<path d="M3500 6263 c0 -41 -19 -310 -26 -371 l-5 -52 863 2 c568 2 862 6 862
13 -1 6 -8 106 -15 223 l-13 212 -833 0 -833 0 0 -27z m1621 -80 c0 -32 2 -65
3 -73 2 -8 7 -61 10 -117 l8 -103 -807 0 -807 0 6 118 c4 64 9 143 12 175 l6
57 784 0 784 0 1 -57z"/>
<path d="M3580 6162 c0 -27 -3 -90 -6 -140 l-7 -92 767 0 767 0 -6 98 c-3 53
-8 116 -11 140 l-5 42 -750 0 -749 0 0 -48z m363 -44 c41 -49 7 -122 -58 -122
-44 0 -75 30 -75 73 0 70 87 103 133 49z m412 -38 c19 -38 35 -72 35 -75 0
-15 -40 -2 -45 15 -4 11 -15 20 -27 20 -11 0 -22 -8 -25 -20 -3 -12 -14 -20
-27 -20 -21 0 -21 2 13 75 19 41 36 75 38 75 2 0 19 -31 38 -70z m-551 45 c-4
-10 -13 -13 -25 -10 -13 4 -19 1 -19 -9 0 -9 9 -16 20 -16 22 0 25 -7 11 -29
-5 -7 -14 -10 -20 -7 -7 5 -11 -4 -11 -23 0 -24 -4 -31 -20 -31 -18 0 -20 7
-20 70 l0 70 45 0 c36 0 43 -3 39 -15z m231 -25 c15 -22 30 -40 32 -40 3 0 3
18 1 40 -3 33 0 40 14 40 16 0 18 -10 18 -70 0 -62 -2 -70 -19 -70 -12 0 -29
15 -43 38 l-23 37 -3 -37 c-2 -25 -8 -38 -18 -38 -10 0 -14 14 -14 58 0 32 -5
63 -12 70 -9 9 -6 12 14 12 18 0 33 -11 53 -40z m184 22 c28 -22 31 -75 6
-102 -12 -13 -31 -20 -57 -20 l-38 0 0 70 0 70 34 0 c19 0 44 -8 55 -18z m281
2 c0 -11 -6 -14 -20 -9 -18 6 -20 2 -20 -54 0 -51 -3 -61 -17 -61 -16 0 -18 8
-15 60 l4 61 -26 -7 c-21 -5 -25 -3 -20 10 9 23 114 23 114 0z m120 -59 c0
-60 -3 -75 -15 -75 -12 0 -15 13 -15 55 0 37 -4 54 -12 53 -20 -5 -21 30 -1
35 42 11 43 9 43 -68z m108 63 c36 -36 -19 -152 -64 -134 -18 7 -18 9 4 23
l23 16 -23 11 c-13 6 -24 22 -26 35 -7 45 55 80 86 49z m111 -10 c19 -53 -39
-135 -73 -101 -3 4 4 13 16 20 18 10 19 12 6 13 -29 0 -42 37 -23 66 20 31 62
33 74 2z m99 10 c15 -15 16 -72 2 -99 -24 -43 -80 -13 -80 43 0 51 49 85 78
56z"/>
<path d="M3862 6108 c-17 -17 -15 -63 3 -78 19 -16 52 -4 60 21 7 23 -18 69
-38 69 -7 0 -18 -5 -25 -12z"/>
<path d="M4170 6070 c0 -39 3 -48 15 -44 8 3 17 14 20 25 8 25 -2 56 -20 63
-12 4 -15 -5 -15 -44z"/>
<path d="M4674 6099 c-8 -14 18 -31 30 -19 9 9 0 30 -14 30 -5 0 -12 -5 -16
-11z"/>
<path d="M4782 6098 c6 -18 28 -21 28 -4 0 9 -7 16 -16 16 -9 0 -14 -5 -12
-12z"/>
<path d="M4894 6097 c-7 -20 -2 -47 11 -50 14 -3 19 43 6 56 -7 7 -12 6 -17
-6z"/>
<path d="M3456 5678 c-2 -13 -12 -88 -21 -168 -34 -304 -98 -691 -175 -1061
-40 -191 -134 -583 -169 -701 l-19 -67 41 -48 c40 -46 125 -141 283 -318 39
-44 109 -123 155 -176 96 -109 299 -338 544 -614 94 -105 185 -208 203 -229
l34 -39 27 29 c28 29 227 252 351 394 36 41 142 160 235 265 94 106 251 283
350 395 99 112 203 228 230 258 28 29 54 62 59 73 6 12 0 51 -19 121 -16 57
-30 105 -32 107 -2 3 -16 -8 -32 -23 l-29 -28 21 -74 c18 -66 19 -76 5 -91
-61 -71 -1117 -1264 -1138 -1286 l-27 -29 -304 343 c-922 1040 -871 981 -866
1008 2 14 32 134 65 266 67 262 134 574 181 840 31 174 95 607 107 728 l6 67
432 0 432 0 32 33 c18 18 32 36 32 40 0 12 -95 8 -108 -5 -9 -9 -12 -9 -12 0
0 9 -103 12 -435 12 l-435 0 -4 -22z"/>
<path d="M4455 5660 l-39 -40 56 0 c52 0 58 3 87 35 17 20 31 38 31 40 0 3
-22 5 -48 5 -43 0 -52 -4 -87 -40z"/>
<path d="M4595 5660 l-39 -40 55 0 c57 0 64 4 108 63 12 16 9 17 -36 17 -44 0
-53 -4 -88 -40z"/>
<path d="M4732 5660 l-33 -40 54 0 c51 0 55 2 86 40 l32 40 -53 0 c-49 0 -55
-3 -86 -40z"/>
<path d="M4871 5660 l-32 -40 53 0 c48 0 55 3 81 34 15 19 27 37 27 40 0 4
-22 6 -48 6 -45 0 -51 -3 -81 -40z"/>
<path d="M5010 5663 l-31 -38 47 -3 c41 -3 51 1 80 29 19 18 34 37 34 41 0 4
-22 8 -49 8 -45 0 -52 -3 -81 -37z"/>
<path d="M5149 5663 c-27 -31 -30 -39 -16 -41 12 -3 17 -14 17 -40 l0 -37 35
36 c33 32 35 38 29 77 -4 24 -12 42 -19 42 -7 0 -28 -17 -46 -37z"/>
<path d="M5186 5550 c-26 -31 -32 -70 -20 -117 6 -21 7 -20 35 12 21 24 29 43
29 71 0 61 -13 71 -44 34z"/>
<path d="M3586 5483 c-55 -470 -162 -1039 -295 -1568 l-50 -199 103 -116 c56
-63 300 -338 541 -610 241 -272 443 -495 449 -495 5 0 254 275 552 611 482
544 541 614 537 638 -3 15 -9 26 -13 24 -5 -2 -248 -273 -541 -602 -293 -330
-535 -594 -537 -588 -2 7 11 29 29 50 18 20 258 291 533 601 494 556 501 565
499 604 -1 22 -6 44 -10 48 -5 5 -73 -63 -150 -150 -136 -152 -142 -161 -133
-190 8 -29 8 -30 -30 -33 -37 -3 -52 -18 -370 -378 -397 -449 -370 -419 -370
-397 0 9 151 187 336 394 l335 378 -52 3 c-28 2 -52 2 -53 0 -38 -53 -561
-627 -564 -619 -2 7 3 20 11 29 8 9 128 145 267 302 238 267 252 285 226 288
-25 3 -27 6 -21 33 4 16 5 29 2 29 -2 0 -112 -121 -243 -269 -136 -154 -240
-264 -242 -255 -2 8 102 132 230 277 129 144 243 276 255 292 13 19 23 52 26
89 l6 60 -28 -30 c-44 -47 -331 -372 -331 -376 0 -1 -36 -41 -80 -88 -90 -95
-111 -88 -24 8 l56 62 -126 0 c-136 0 -136 0 -116 56 9 26 30 164 24 164 -1 0
-26 -11 -56 -25 -77 -35 -192 -51 -267 -37 -146 27 -221 101 -269 267 -10 35
-17 139 -22 350 -6 211 -13 319 -24 365 -8 36 -15 68 -16 73 0 4 66 6 148 5
125 -3 146 -5 144 -18 -36 -157 -51 -437 -34 -604 14 -126 48 -200 107 -234
33 -19 52 -22 110 -20 86 4 127 29 159 97 20 45 21 61 24 521 l3 475 -118 -3
c-122 -3 -251 -23 -312 -48 -19 -8 -36 -13 -37 -11 -2 2 13 55 35 118 l38 114
255 3 255 2 184 208 c101 114 219 246 262 294 l79 88 -54 0 -54 0 -214 -241
c-118 -133 -216 -236 -218 -230 -2 7 2 20 10 29 21 25 337 382 367 415 l25 27
-55 0 -54 0 -139 -158 c-77 -86 -143 -158 -148 -160 -27 -11 4 34 95 135 56
64 115 131 130 149 l28 34 -53 0 -53 -1 -75 -85 c-41 -48 -76 -81 -78 -75 -4
12 14 37 84 118 l36 42 -430 1 -430 0 -6 -57z"/>
<path d="M4714 5328 c-104 -117 -222 -250 -262 -295 l-74 -83 54 0 54 0 262
295 262 295 -54 0 -54 0 -188 -212z"/>
<path d="M4804 5273 c-130 -148 -249 -281 -263 -296 l-26 -28 57 3 57 3 226
255 c209 236 225 257 225 292 0 31 -4 38 -19 38 -13 0 -102 -93 -257 -267z"/>
<path d="M5200 5408 c-18 -24 -23 -41 -21 -72 4 -58 15 -63 46 -22 24 31 26
42 21 81 -4 25 -10 45 -14 44 -4 0 -18 -14 -32 -31z"/>
<path d="M4897 5222 c-104 -117 -200 -226 -214 -242 l-26 -31 55 3 54 3 168
188 169 189 -9 51 -9 50 -188 -211z"/>
<path d="M5223 5278 c-29 -30 -31 -37 -26 -80 3 -27 9 -48 12 -48 4 0 20 13
35 29 26 27 27 32 19 81 l-8 51 -32 -33z"/>
<path d="M4965 5144 c-187 -211 -178 -194 -113 -193 52 0 54 1 107 62 29 34
78 90 107 123 l54 61 -7 52 -8 52 -140 -157z"/>
<path d="M5235 5136 c-20 -26 -24 -40 -19 -67 10 -61 12 -62 45 -25 28 32 30
39 24 81 -4 25 -11 45 -16 45 -4 0 -19 -15 -34 -34z"/>
<path d="M5010 5039 c-100 -114 -106 -124 -132 -207 -15 -47 -26 -87 -25 -88
2 -2 228 251 264 296 19 23 22 36 17 74 -4 25 -9 46 -13 45 -3 0 -53 -54 -111
-120z"/>
<path d="M5258 5006 c-23 -28 -25 -37 -18 -74 4 -24 10 -45 12 -48 3 -2 17 11
32 31 24 31 26 41 20 80 -3 25 -9 45 -13 44 -3 0 -18 -15 -33 -33z"/>
<path d="M4853 4705 l-292 -329 20 -28 c11 -15 24 -28 28 -28 5 0 131 137 280
306 l272 305 -8 52 -8 51 -292 -329z"/>
<path d="M5288 4883 c-28 -29 -36 -75 -20 -116 7 -16 11 -14 38 15 30 32 31
34 20 81 l-11 49 -27 -29z"/>
<path d="M4897 4599 c-175 -196 -265 -305 -259 -311 10 -10 42 22 184 177 25
28 50 60 57 73 9 17 20 22 51 22 37 0 44 5 144 118 109 121 112 128 97 195 -6
27 -21 12 -274 -274z"/>
<path d="M4440 4764 c0 -8 5 -12 10 -9 6 3 10 10 10 16 0 5 -4 9 -10 9 -5 0
-10 -7 -10 -16z"/>
<path d="M4471 4743 c-26 -31 -31 -46 -31 -90 0 -29 3 -53 8 -52 4 0 39 37 79
82 76 88 77 95 6 96 -25 1 -38 -7 -62 -36z"/>
<path d="M5306 4749 c-24 -28 -26 -38 -20 -73 3 -23 8 -43 10 -45 2 -3 18 8
34 24 26 25 29 33 24 69 -9 57 -17 62 -48 25z"/>
<path d="M4536 4661 c-76 -86 -96 -115 -96 -139 0 -16 7 -35 16 -43 13 -11 23
-4 72 51 31 36 89 101 129 145 75 85 77 95 12 95 -34 0 -43 -8 -133 -109z"/>
<path d="M5098 4669 c-49 -54 -88 -100 -88 -103 0 -3 22 -6 49 -6 47 0 51 2
99 57 44 49 50 62 45 88 -13 67 -14 67 -105 -36z"/>
<path d="M4624 4604 c-71 -80 -130 -149 -132 -153 -1 -4 10 -19 25 -33 l28
-26 115 130 c63 72 128 146 143 164 l29 34 -36 15 c-19 8 -37 15 -39 15 -2 0
-62 -66 -133 -146z"/>
<path d="M5329 4617 c-24 -30 -25 -35 -15 -80 l11 -47 29 36 c25 31 27 41 21
80 -3 24 -9 44 -13 44 -4 0 -19 -15 -33 -33z"/>
<path d="M5170 4595 c-25 -26 -30 -35 -17 -35 22 0 21 -8 -4 -45 -29 -43 -71
-126 -66 -131 2 -2 37 32 76 77 64 73 72 86 67 112 -3 16 -6 36 -6 43 0 22
-14 16 -50 -21z"/>
<path d="M5356 4491 c-23 -24 -26 -33 -20 -70 4 -23 10 -44 15 -46 4 -3 19 10
33 28 21 27 24 40 19 70 -3 21 -9 39 -13 42 -4 2 -19 -8 -34 -24z"/>
<path d="M5154 4421 c-79 -90 -82 -94 -87 -154 -3 -34 -5 -63 -3 -64 1 -1 46
47 99 108 l98 109 -13 47 -13 46 -81 -92z"/>
<path d="M5386 4371 c-26 -27 -28 -34 -22 -75 4 -25 11 -46 15 -46 4 0 19 12
34 28 25 26 26 29 14 75 l-12 48 -29 -30z"/>
<path d="M5158 4269 l-98 -110 0 -57 1 -57 52 55 c29 31 78 86 111 123 57 66
58 68 52 112 -4 25 -10 45 -14 45 -4 0 -51 -50 -104 -111z"/>
<path d="M5411 4244 c-22 -29 -25 -43 -15 -93 l7 -32 32 31 c31 30 32 33 22
76 -6 24 -14 44 -18 44 -4 0 -17 -12 -28 -26z"/>
<path d="M5173 4132 l-112 -127 -1 -60 0 -60 24 25 c13 14 70 77 126 140 100
113 101 116 95 155 -3 22 -9 43 -13 47 -4 3 -58 -51 -119 -120z"/>
<path d="M4748 4078 c-53 -60 -100 -102 -109 -101 -9 1 -54 -41 -108 -101 -90
-103 -91 -105 -91 -156 0 -31 4 -50 10 -48 6 2 98 102 205 223 169 190 195
223 195 252 0 18 -2 33 -4 33 -2 0 -46 -46 -98 -102z"/>
<path d="M4440 4149 c0 -11 5 -17 10 -14 6 3 10 13 10 21 0 8 -4 14 -10 14 -5
0 -10 -9 -10 -21z"/>
<path d="M5438 4118 c-21 -29 -23 -38 -15 -73 5 -22 11 -42 13 -44 2 -2 15 10
29 25 21 24 25 35 20 69 -8 56 -18 61 -47 23z"/>
<path d="M4461 4106 c-19 -20 -22 -33 -19 -81 l3 -58 47 55 47 55 -28 27 -27
26 -23 -24z"/>
<path d="M5186 3989 c-99 -111 -126 -147 -122 -163 3 -12 6 -36 6 -54 0 -31 6
-26 136 120 131 147 135 153 129 188 -4 19 -10 39 -14 43 -5 5 -66 -56 -135
-134z"/>
<path d="M4648 3851 l-198 -222 0 -55 c0 -29 3 -54 8 -53 4 0 59 59 122 131
63 72 150 171 193 219 l78 88 -3 57 -3 57 -197 -222z"/>
<path d="M4498 3994 c-55 -62 -58 -68 -58 -120 0 -30 3 -54 8 -53 4 0 43 41
86 91 l79 89 -29 29 -29 29 -57 -65z"/>
<path d="M5468 3996 c-25 -30 -26 -35 -15 -74 6 -23 14 -42 17 -42 4 0 16 14
29 31 18 24 21 38 16 70 -4 21 -10 40 -13 42 -4 2 -19 -10 -34 -27z"/>
<path d="M5205 3855 l-137 -155 9 -50 8 -51 143 161 c143 161 144 161 137 201
-4 21 -10 41 -15 44 -4 3 -70 -65 -145 -150z"/>
<path d="M4690 3744 c-257 -291 -233 -258 -225 -310 3 -25 10 -44 15 -42 4 2
90 95 189 207 l181 204 0 58 c0 33 -1 59 -2 59 -2 -1 -73 -80 -158 -176z"/>
<path d="M6618 6637 l-56 -22 34 -38 c19 -20 37 -37 39 -37 3 0 9 10 14 23 5
12 16 39 25 60 19 43 19 43 -56 14z"/>
<path d="M7009 6162 c-91 -47 -134 -139 -104 -218 43 -114 165 -135 267 -45
96 84 90 216 -12 269 -58 29 -86 28 -151 -6z"/>
<path d="M1460 6103 c-18 -7 -60 -44 -60 -53 0 -6 143 -90 153 -90 10 0 19 67
12 90 -4 12 -21 30 -38 41 -33 20 -42 21 -67 12z"/>
<path d="M7343 5698 c-40 -17 -73 -37 -73 -44 0 -21 51 -54 85 -54 18 0 44 9
59 21 21 17 26 29 26 65 0 29 -4 44 -12 44 -7 -1 -46 -15 -85 -32z"/>
<path d="M1458 3152 c-32 -15 -58 -31 -58 -38 0 -16 44 -54 63 -54 51 0 83 38
75 91 -4 31 -14 31 -80 1z"/>
<path d="M1273 3067 c-40 -17 -73 -37 -73 -43 0 -5 13 -22 28 -37 70 -67 171
5 136 97 -8 21 -7 21 -91 -17z"/>
<path d="M7230 3025 c24 -25 47 -45 50 -45 3 0 16 20 28 45 l22 45 -72 0 -72
0 44 -45z"/>
<path d="M6439 1988 c10 -29 20 -59 22 -66 3 -8 17 -2 42 19 20 17 37 34 37
38 0 6 -103 61 -115 61 -2 0 4 -24 14 -52z"/>
<path d="M2712 1664 c-35 -60 -41 -78 -30 -85 18 -12 65 -11 89 1 20 11 49 60
49 84 0 15 -47 76 -58 76 -4 0 -27 -35 -50 -76z"/>
<path d="M5450 1508 c-120 -34 -148 -191 -52 -291 38 -41 74 -57 125 -57 114
0 180 122 128 236 -20 44 -95 114 -122 114 -10 0 -23 2 -31 4 -7 2 -29 0 -48
-6z"/>
<path d="M4930 1351 c0 -17 30 -164 34 -168 8 -8 65 27 76 46 22 42 4 102 -37
120 -29 13 -73 15 -73 2z"/>
</g>
</svg>
